<?xml version="1.0" encoding="utf-8"?>
<!-- Generator: Adobe Illustrator 23.0.3, SVG Export Plug-In . SVG Version: 6.00 Build 0)  -->
<svg version="1.1" id="Layer_1" xmlns="http://www.w3.org/2000/svg" xmlns:xlink="http://www.w3.org/1999/xlink" x="0px" y="0px"
	 viewBox="0 0 1000 500" style="enable-background:new 0 0 1000 500;" xml:space="preserve">
<style type="text/css">
	.st0{clip-path:url(#SVGID_2_);fill-rule:evenodd;clip-rule:evenodd;fill:#FFFFFF;}
	.st1{clip-path:url(#SVGID_2_);fill-rule:evenodd;clip-rule:evenodd;fill:#2CB5BC;}
	.st2{fill:none;}
	.st3{fill:#FFFFFF;}
	.st4{font-family:'GelPenUprightHeavy';}
	.st5{font-size:173.7202px;}
	.st6{letter-spacing:3;}
	.st7{font-family:'GelPenUpright';}
	.st8{font-size:57.9067px;}
	.st9{letter-spacing:2;}
</style>
<g>
	<defs>
		<rect id="SVGID_1_" x="-111.5" y="-34" width="557.32" height="557.32"/>
	</defs>
	<clipPath id="SVGID_2_">
		<use xlink:href="#SVGID_1_"  style="overflow:visible;"/>
	</clipPath>
	<path class="st0" d="M101.11,135.52c-45.35,30.97-68.48,88.25-53.46,144.3c19.01,70.96,91.95,113.07,162.91,94.06
		c57.99-15.53,96.7-67.07,98.56-124.11c-8.03,46.81-42.39,87.03-91.28,100.13c-66.98,17.95-135.81-21.79-153.76-88.77
		C51.48,214.09,67.34,166.13,101.11,135.52"/>
	<path class="st0" d="M249.77,319.05c38.27-26.13,57.78-74.46,45.11-121.76c-16.04-59.88-77.59-95.41-137.47-79.37
		c-48.93,13.11-81.6,56.6-83.17,104.73c6.77-39.5,35.77-73.44,77.03-84.49c56.51-15.14,114.6,18.39,129.75,74.9
		C291.65,252.76,278.27,293.23,249.77,319.05"/>
	<path class="st0" d="M250.43,285.13c-1.25-3.01-6-4.75-11.72-4.24c-1.52,0.25-3.02,0.49-4.51,0.98c-6.74,2.01-41.96,14-42.2,14.49
		h-0.74l0.49,0.51c3.99,3.47,6,6.98,5,9.72c-1.25,4.26-7,7-16.23,7.76c-8.49,0.74-18.98,0-31.22-2.25h4.23
		c8.99,0,17.23,0,23.72-0.51c10.26-0.73,14.98-2.99,15.74-6.98c0.25-2.5-1.25-4.5-4.75-6.24c-3.75-1.76-11.48-3.01-19.22-4.01
		c-5.26-0.98-9.99-1.74-13.49-2.5c-12.24-3.23-24.73-6.49-39.22-5.24c-2.23,0.27-4.75,0.27-6.74,1
		c-11.24,1.74-21.98,4.51-33.46,7.74l-1.25,0.27l16.72,24.21c3.01-0.76,6.27-1.25,9.25-1.49c3.99-0.52,7.74-0.27,11.24,0.24
		c4.75,0.74,16.47,2.99,27.47,5.24c11.48,2.74,22.47,4.75,26.73,5.24c2.5,0.51,4.73,0.51,7.22,0.25c5.51-0.49,11.48-3.48,16.74-6.49
		c1.75-1,3.75-1.74,5.25-2.74l49.94-26.98C250.94,289.63,250.94,286.89,250.43,285.13"/>
	<line class="st1" x1="159.82" y1="278.09" x2="159.82" y2="278.09"/>
	<path class="st0" d="M134.45,185.23c0,0,6.98,11.58,4.49,38.64c-2.49,27.06-3.74,41.05,1.87,52.17
		c5.61,11.13,17.83,10.68,17.83,10.68s-11.72-25.56,2.49-44.05c14.21-18.49,34.28-22.85,42.76-35.48
		c8.48-12.63,8.98-26.24,8.79-31.27c-0.19-5.04-1.37-8.8-1.37-8.8s-3.05,14.43-18.76,25.71c-15.71,11.28-19.95,9.47-28.42,19.92
		c-8.48,10.45-9.48,15.18-9.48,15.18s0.81-19.47-4.43-30.14C144.99,187.11,134.45,185.23,134.45,185.23"/>
	<path class="st0" d="M158.64,286.72c0,0-11.72-25.56,2.49-44.05c14.21-18.49,34.28-22.85,42.76-35.48
		c8.48-12.63,8.98-26.24,8.79-31.27c-0.19-5.04-1.37-8.8-1.37-8.8c0.37,1.8-0.11,23.1-13.21,36.69
		c-13.1,13.59-41.39,16.54-49.37,44.5C140.75,276.27,158.64,286.72,158.64,286.72"/>
	<path class="st0" d="M166.93,242.37c0,0,7.73-7.52,18.33-0.15c10.6,7.37,15.96,20.9,30.42,23.91c14.46,3.01,19.07-9.32,19.07-9.32
		s-3.62,28.72-28.05,24.51c-24.43-4.21-27.93-23.61-31.04-30.82C172.54,243.27,169.8,242.52,166.93,242.37"/>
	<path class="st0" d="M234.69,257.22c-0.56,3.53-5.3,27.99-27.99,24.08c-24.43-4.21-27.92-23.61-31.04-30.82
		c-3.12-7.22-5.86-7.97-8.73-8.12c22.65-4.02,14.36,26.2,39.96,32.4C223.96,278.9,232.13,265.09,234.69,257.22"/>
</g>
<rect x="344.09" y="124.74" class="st2" width="630.91" height="210.83"/>
<text transform="matrix(1 0 0 1 344.0928 260.8027)" class="st3 st4 st5 st6">KaryaIn</text>
<rect x="344.09" y="312.41" class="st2" width="713.39" height="70.94"/>
<text transform="matrix(1 0 0 1 344.0933 356.4072)" class="st3 st7 st8 st9">100% Karya Indonesia</text>
</svg>
